<?xml version="1.0" encoding="utf-8"?>
<!-- Generator: Adobe Illustrator 27.0.0, SVG Export Plug-In . SVG Version: 6.00 Build 0)  -->
<svg version="1.1" id="Layer_1" xmlns="http://www.w3.org/2000/svg" xmlns:xlink="http://www.w3.org/1999/xlink" x="0px" y="0px"
	 viewBox="0 0 2000 908.81" style="enable-background:new 0 0 2000 908.81;" xml:space="preserve">
<style type="text/css">
	.st0{fill-rule:evenodd;clip-rule:evenodd;fill:#BBBDBF;}
	.st1{fill:#F05A28;}
	.st2{fill:#1D1D1D;}
</style>
<rect x="666.91" y="13.62" class="st0" width="8.33" height="882.27"/>
<path class="st1" d="M265.24,219.15c51.06-0.14,95.93,16.28,128.38,47.24c33.04,31.53,48.91,72.97,49.44,120.95h61.58
	c-1.67-31.05-1.59-101.87-64.15-162.46c-62.35-60.39-142.92-63.94-175.26-63.94L265.24,219.15z"/>
<path class="st1" d="M265.24,703.17c-55.47-0.29-100.72-14.98-134.35-44.43c-33.6-29.42-55.42-70.33-56.43-130.41H11.19
	c1.05,38.97,6.19,111.23,70.72,172.1c61.99,58.48,146.02,60.95,183.33,60.95V703.17z"/>
<path class="st2" d="M265.18,651.33c0.29,0,0.61,0,0.9,0c20.8,0,39.7-3.09,56.71-9.3c17-6.2,31.51-14.4,43.51-24.6
	c12-10.2,21.3-21.7,27.9-34.5c6.6-12.8,9.9-26,9.9-39.61c0-22.8-4.8-41.3-14.4-55.51c-9.6-14.2-21.6-25.7-36.01-34.5
	c-14.4-8.8-30.11-15.8-47.11-21c-17.01-5.19-32.7-10.2-47.11-15c-14.4-4.8-26.4-10.2-36-16.2c-9.6-6-14.4-14.6-14.4-25.8
	c0-10.4,5-20,15-28.8c10-8.8,23.1-13.2,41.1-13.2v-65.99c-20.03,0.09-38.04,3.07-54,8.98c-16.2,6-30,13.9-41.41,23.7
	c-11.4,9.81-20.2,21.3-26.4,34.5c-6.21,13.2-9.3,27-9.3,41.41c0,22.01,4.8,39.71,14.4,53.11c9.6,13.41,21.6,24.3,36,32.7
	c14.4,8.4,30.1,15,47.11,19.8c17,4.8,32.7,9.7,47.11,14.7c14.4,5.01,26.4,10.71,36,17.1c9.6,6.4,14.4,15.41,14.4,27
	c0,12-5.2,22.5-15.6,31.5c-10.41,9-26.21,13.5-47.41,13.5c-0.31,0-0.6-0.01-0.91-0.02v66.01"/>
<path class="st1" d="M266.08,333.3c18,0,32,4.8,42.01,14.4c10,9.6,15,22.8,15,39.6h69.01l0,0c0-17.2-3-33.1-9-47.71
	c-6-14.6-14.61-27.3-25.8-38.1c-11.21-10.8-24.51-19.2-39.91-25.2c-15.41-6-32.51-9-51.31-9c-0.31,0-0.6,0.02-0.91,0.02v0v65.99
	C265.48,333.29,265.77,333.3,266.08,333.3z"/>
<path class="st1" d="M265.18,585.31L265.18,585.31c-7.19-0.06-13.8-0.84-19.85-2.34c-0.01,0-0.02,0-0.03-0.01
	c-0.99-0.25-1.97-0.51-2.94-0.8c-0.04-0.01-0.08-0.03-0.12-0.04c-0.93-0.28-1.85-0.58-2.75-0.89c-0.07-0.02-0.14-0.05-0.21-0.08
	c-0.87-0.31-1.73-0.63-2.57-0.97c-0.11-0.04-0.21-0.09-0.31-0.14c-0.8-0.33-1.59-0.67-2.37-1.03c-0.15-0.07-0.29-0.15-0.44-0.22
	c-0.73-0.35-1.45-0.7-2.15-1.07c-0.19-0.1-0.38-0.22-0.57-0.32c-0.65-0.36-1.3-0.71-1.93-1.09c-0.25-0.15-0.48-0.31-0.73-0.46
	c-0.56-0.35-1.13-0.7-1.68-1.07c-0.32-0.21-0.62-0.44-0.93-0.66c-0.46-0.33-0.93-0.65-1.38-0.99c-0.41-0.31-0.79-0.64-1.19-0.95
	c-0.34-0.28-0.69-0.54-1.03-0.83c-0.66-0.56-1.3-1.14-1.94-1.74c-0.06-0.06-0.13-0.11-0.19-0.17c-11.21-10.6-16.8-24.3-16.8-41.1
	h-72.01v0c0,18,3.09,34.5,9.3,49.51c6.2,15,15.1,28.01,26.7,39c11.6,11.01,25.7,19.5,42.3,25.5c0.14,0.05,0.29,0.09,0.43,0.14
	c1.92,0.69,3.86,1.34,5.84,1.95c1.3,0.4,2.64,0.75,3.97,1.11c0.83,0.23,1.65,0.48,2.49,0.7c1.84,0.47,3.72,0.89,5.62,1.29
	c0.35,0.07,0.68,0.16,1.03,0.24c2.17,0.45,4.38,0.85,6.62,1.21c0.08,0.01,0.15,0.03,0.23,0.04c9.3,1.5,19.16,2.26,29.57,2.31V585.31
	z"/>
<g>
	<path class="st2" d="M760.76,811.48V615.11h63.38c13.93,0,25.59,2.67,34.95,8.01c9.36,5.34,16.43,12.58,21.19,21.72
		c4.76,9.14,7.14,19.43,7.14,30.88c0,11.44-2.37,21.75-7.09,30.92c-4.73,9.17-11.76,16.43-21.1,21.77
		c-9.33,5.34-20.94,8.01-34.81,8.01h-49.86v-16.11h49.38c10.29,0,18.83-1.93,25.6-5.8c6.77-3.87,11.84-9.16,15.2-15.87
		c3.36-6.71,5.04-14.35,5.04-22.92c0-8.57-1.68-16.21-5.04-22.92c-3.35-6.71-8.44-11.99-15.25-15.82
		c-6.81-3.84-15.42-5.75-25.84-5.75h-44.97v180.27H760.76z"/>
	<path class="st2" d="M912.56,811.48V664.2h16.59v22.63h1.24c2.94-7.42,8.07-13.41,15.39-17.98c7.32-4.57,15.61-6.86,24.88-6.86
		c1.4,0,2.97,0.03,4.7,0.1s3.16,0.13,4.32,0.19v17.36c-0.77-0.13-2.11-0.32-4.03-0.58c-1.92-0.25-4-0.38-6.24-0.38
		c-7.67,0-14.5,1.62-20.47,4.84c-5.98,3.23-10.69,7.69-14.14,13.38c-3.45,5.69-5.18,12.18-5.18,19.47v95.12H912.56z"/>
	<path class="st2" d="M1050.67,814.55c-12.72,0-23.96-3.23-33.7-9.68c-9.75-6.46-17.37-15.39-22.87-26.8
		c-5.5-11.41-8.25-24.6-8.25-39.55c0-15.09,2.75-28.37,8.25-39.84c5.5-11.47,13.12-20.42,22.87-26.85
		c9.75-6.43,20.98-9.64,33.7-9.64c12.72,0,23.94,3.23,33.66,9.68c9.72,6.46,17.34,15.41,22.87,26.85
		c5.53,11.44,8.29,24.71,8.29,39.79c0,14.96-2.75,28.14-8.25,39.55c-5.5,11.41-13.12,20.34-22.87,26.8
		C1074.63,811.33,1063.39,814.55,1050.67,814.55z M1050.67,798.92c10.23,0,18.89-2.75,25.98-8.25c7.1-5.5,12.48-12.82,16.16-21.96
		c3.67-9.14,5.51-19.21,5.51-30.2s-1.84-21.1-5.51-30.3c-3.68-9.21-9.06-16.59-16.16-22.15c-7.09-5.56-15.76-8.34-25.98-8.34
		c-10.17,0-18.81,2.78-25.94,8.34c-7.13,5.56-12.53,12.95-16.2,22.15c-3.68,9.21-5.51,19.31-5.51,30.3s1.84,21.06,5.51,30.2
		c3.67,9.14,9.06,16.46,16.16,21.96C1031.78,796.18,1040.45,798.92,1050.67,798.92z"/>
	<path class="st2" d="M1139.67,664.2h17.16v161.57c0,8.37-1.55,15.61-4.65,21.72c-3.1,6.1-7.59,10.84-13.47,14.19
		c-5.88,3.36-12.98,5.03-21.29,5.03c-0.64,0-1.28,0-1.92,0c-0.64,0-1.34-0.03-2.11-0.1l0.19-16.01c0.64,0,1.25,0,1.82,0
		c0.58,0,1.18,0,1.82,0c7.03,0,12.53-2.17,16.49-6.52c3.96-4.35,5.95-10.45,5.95-18.31V664.2z M1148.11,638.89
		c-3.45,0-6.44-1.2-8.97-3.6s-3.79-5.29-3.79-8.68c0-3.39,1.26-6.28,3.79-8.68c2.53-2.4,5.51-3.6,8.97-3.6c3.51,0,6.54,1.2,9.06,3.6
		c2.52,2.4,3.79,5.29,3.79,8.68c0,3.39-1.27,6.28-3.79,8.68C1154.65,637.69,1151.62,638.89,1148.11,638.89z"/>
	<path class="st2" d="M1248.14,814.55c-13.75,0-25.63-3.21-35.67-9.64s-17.79-15.34-23.25-26.75c-5.47-11.41-8.2-24.56-8.2-39.46
		c0-14.83,2.73-28.01,8.2-39.55c5.47-11.54,13.04-20.58,22.73-27.14c9.69-6.55,20.89-9.83,33.61-9.83c7.99,0,15.7,1.46,23.11,4.36
		c7.42,2.91,14.08,7.35,20,13.33c5.91,5.98,10.59,13.49,14.05,22.53c3.45,9.05,5.18,19.74,5.18,32.07v8.44h-115.07v-15.05h97.61
		c0-9.46-1.9-17.98-5.7-25.55c-3.8-7.57-9.08-13.57-15.82-17.98c-6.74-4.41-14.53-6.62-23.35-6.62c-9.33,0-17.55,2.49-24.64,7.48
		c-7.1,4.99-12.64,11.57-16.64,19.75c-4,8.18-6.03,17.13-6.09,26.85v9.01c0,11.7,2.03,21.91,6.09,30.64
		c4.06,8.73,9.83,15.49,17.31,20.28c7.48,4.79,16.33,7.19,26.56,7.19c6.97,0,13.09-1.09,18.36-3.26c5.27-2.17,9.72-5.1,13.33-8.77
		c3.61-3.68,6.34-7.72,8.2-12.13l16.2,5.27c-2.24,6.2-5.9,11.92-10.98,17.16c-5.08,5.24-11.41,9.44-18.99,12.61
		C1266.69,812.97,1257.98,814.55,1248.14,814.55z"/>
	<path class="st2" d="M1392.1,814.55c-13.17,0-24.63-3.29-34.38-9.88c-9.75-6.58-17.31-15.6-22.68-27.04
		c-5.37-11.44-8.05-24.48-8.05-39.12c0-14.77,2.73-27.9,8.2-39.41c5.47-11.51,13.06-20.53,22.77-27.09c9.72-6.55,21-9.83,33.85-9.83
		c9.84,0,18.76,1.9,26.75,5.71c7.99,3.8,14.59,9.14,19.8,16.01c5.21,6.87,8.49,14.88,9.83,24.02h-17.26
		c-1.79-8.31-6.09-15.42-12.9-21.34c-6.81-5.91-15.45-8.87-25.94-8.87c-9.4,0-17.71,2.54-24.93,7.62
		c-7.22,5.08-12.87,12.15-16.92,21.19c-4.06,9.05-6.09,19.51-6.09,31.4c0,11.96,1.98,22.52,5.95,31.69
		c3.96,9.17,9.54,16.35,16.73,21.53c7.19,5.18,15.61,7.77,25.27,7.77c6.52,0,12.48-1.23,17.88-3.69c5.4-2.46,9.94-5.96,13.62-10.5
		c3.68-4.54,6.15-9.94,7.43-16.2h17.26c-1.28,8.89-4.43,16.8-9.44,23.73c-5.02,6.94-11.51,12.39-19.47,16.35
		C1411.42,812.57,1402.32,814.55,1392.1,814.55z"/>
	<path class="st2" d="M1532.03,664.2v14.86h-70.28V664.2H1532.03z M1483.7,628.91h17.16v144.12c0,6.14,1.05,10.95,3.16,14.43
		c2.11,3.49,4.86,5.95,8.25,7.38c3.39,1.44,7,2.16,10.83,2.16c2.24,0,4.16-0.14,5.75-0.43c1.6-0.29,3-0.59,4.22-0.91l3.64,15.44
		c-1.66,0.64-3.71,1.23-6.14,1.78c-2.43,0.54-5.43,0.82-9.01,0.82c-6.27,0-12.29-1.38-18.08-4.12c-5.79-2.75-10.53-6.84-14.24-12.27
		c-3.71-5.43-5.56-12.18-5.56-20.23V628.91z"/>
</g>
<g>
	<path class="st2" d="M865.08,408.88c-0.89-8.37-4.65-14.89-11.26-19.56c-6.62-4.67-15.2-7-25.75-7c-7.41,0-13.77,1.12-19.08,3.36
		c-5.3,2.24-9.36,5.27-12.18,9.11c-2.81,3.84-4.26,8.22-4.32,13.14c0,4.09,0.94,7.64,2.83,10.64c1.89,3.01,4.46,5.55,7.72,7.62
		c3.26,2.08,6.87,3.82,10.84,5.23c3.96,1.41,7.96,2.59,11.98,3.55l18.41,4.6c7.41,1.73,14.56,4.06,21.43,7
		c6.87,2.94,13.04,6.65,18.5,11.12c5.47,4.48,9.79,9.88,12.99,16.2c3.19,6.33,4.79,13.75,4.79,22.25c0,11.51-2.94,21.62-8.82,30.35
		c-5.88,8.73-14.37,15.53-25.46,20.42c-11.1,4.89-24.5,7.34-40.23,7.34c-15.28,0-28.53-2.37-39.74-7.1
		c-11.22-4.73-19.98-11.63-26.28-20.71c-6.29-9.08-9.7-20.14-10.21-33.18h35c0.51,6.84,2.62,12.53,6.33,17.07
		c3.71,4.54,8.55,7.93,14.53,10.17c5.98,2.24,12.68,3.36,20.09,3.36c7.73,0,14.53-1.17,20.38-3.5c5.85-2.33,10.43-5.59,13.76-9.78
		c3.32-4.19,5.01-9.09,5.08-14.72c-0.07-5.11-1.57-9.35-4.51-12.71c-2.94-3.36-7.05-6.17-12.32-8.44
		c-5.27-2.27-11.43-4.3-18.46-6.09l-22.34-5.75c-16.18-4.15-28.94-10.47-38.31-18.94c-9.37-8.47-14.05-19.74-14.05-33.8
		c0-11.57,3.15-21.7,9.44-30.4c6.3-8.69,14.88-15.45,25.75-20.28c10.87-4.82,23.17-7.24,36.92-7.24c13.94,0,26.16,2.41,36.68,7.24
		c10.52,4.83,18.78,11.51,24.79,20.04c6,8.53,9.11,18.33,9.3,29.39H865.08z"/>
	<path class="st2" d="M996.21,403.99v26.85h-84.67v-26.85H996.21z M932.44,368.71h34.71v138.27c0,4.67,0.72,8.23,2.16,10.69
		c1.44,2.46,3.34,4.14,5.71,5.03c2.36,0.9,4.98,1.34,7.86,1.34c2.18,0,4.17-0.16,6-0.48c1.82-0.32,3.21-0.61,4.17-0.86l5.85,27.14
		c-1.86,0.64-4.49,1.34-7.91,2.11c-3.42,0.77-7.59,1.21-12.52,1.34c-8.69,0.25-16.52-1.07-23.49-3.98
		c-6.97-2.91-12.48-7.43-16.54-13.57c-4.06-6.14-6.06-13.81-5.99-23.01V368.71z"/>
	<path class="st2" d="M1058.19,554.25c-9.33,0-17.73-1.68-25.17-5.03c-7.45-3.36-13.33-8.33-17.64-14.91
		c-4.32-6.58-6.47-14.7-6.47-24.35c0-8.31,1.53-15.18,4.6-20.62c3.07-5.43,7.25-9.78,12.56-13.04c5.3-3.26,11.3-5.74,17.98-7.43
		c6.68-1.69,13.6-2.92,20.76-3.69c8.63-0.9,15.63-1.71,21-2.45c5.37-0.73,9.28-1.89,11.75-3.45c2.46-1.57,3.69-4.01,3.69-7.34v-0.58
		c0-7.22-2.14-12.82-6.43-16.78c-4.28-3.96-10.45-5.95-18.5-5.95c-8.5,0-15.23,1.85-20.19,5.56c-4.95,3.71-8.29,8.09-10.02,13.14
		l-32.41-4.6c2.56-8.95,6.77-16.45,12.66-22.49c5.88-6.04,13.07-10.58,21.58-13.62c8.5-3.04,17.89-4.56,28.19-4.56
		c7.09,0,14.16,0.83,21.19,2.49c7.03,1.66,13.46,4.4,19.28,8.2c5.82,3.8,10.5,8.97,14.04,15.49c3.55,6.52,5.32,14.67,5.32,24.45
		v98.57h-33.37v-20.23h-1.15c-2.11,4.09-5.07,7.91-8.87,11.46c-3.81,3.55-8.57,6.39-14.29,8.53S1065.86,554.25,1058.19,554.25z
		 M1067.2,528.74c6.97,0,13.01-1.39,18.12-4.17c5.12-2.78,9.07-6.47,11.84-11.08c2.78-4.6,4.17-9.62,4.17-15.05v-17.36
		c-1.08,0.9-2.92,1.73-5.52,2.49c-2.59,0.77-5.48,1.44-8.67,2.01c-3.2,0.58-6.36,1.09-9.49,1.53c-3.13,0.45-5.85,0.83-8.15,1.15
		c-5.18,0.7-9.81,1.85-13.9,3.45c-4.09,1.6-7.32,3.82-9.69,6.66c-2.37,2.84-3.55,6.5-3.55,10.98c0,6.39,2.33,11.22,7,14.48
		C1054.03,527.11,1059.98,528.74,1067.2,528.74z"/>
	<path class="st2" d="M1196.21,464.98v86.3h-34.71V403.99h33.17v25.03h1.73c3.39-8.25,8.81-14.8,16.25-19.66
		c7.45-4.86,16.67-7.29,27.67-7.29c10.16,0,19.03,2.17,26.61,6.52c7.58,4.35,13.45,10.64,17.64,18.89
		c4.19,8.25,6.25,18.25,6.18,30.01v93.78h-34.71v-88.41c0-9.84-2.54-17.55-7.62-23.11c-5.08-5.56-12.1-8.34-21.05-8.34
		c-6.07,0-11.46,1.33-16.15,3.98c-4.7,2.65-8.38,6.47-11.03,11.46S1196.21,457.88,1196.21,464.98z"/>
	<path class="st2" d="M1368.64,553.87c-11.57,0-21.93-2.97-31.07-8.92c-9.14-5.94-16.36-14.58-21.67-25.89
		c-5.31-11.31-7.96-25.06-7.96-41.23c0-16.36,2.7-30.19,8.1-41.47c5.41-11.28,12.71-19.82,21.92-25.6
		c9.2-5.78,19.46-8.68,30.78-8.68c8.63,0,15.73,1.45,21.29,4.36c5.56,2.91,9.98,6.39,13.24,10.45s5.78,7.88,7.58,11.46h1.43V354.9
		h34.81v196.38h-34.13v-23.2h-2.11c-1.8,3.58-4.38,7.37-7.77,11.36c-3.39,4-7.87,7.4-13.42,10.21
		C1384.08,552.46,1377.08,553.87,1368.64,553.87z M1378.32,525.39c7.35,0,13.62-2,18.8-5.99c5.18-3.99,9.11-9.57,11.79-16.73
		c2.69-7.16,4.03-15.5,4.03-25.03c0-9.52-1.33-17.8-3.98-24.84c-2.65-7.03-6.55-12.5-11.7-16.4c-5.14-3.9-11.46-5.85-18.94-5.85
		c-7.73,0-14.19,2.01-19.37,6.04c-5.18,4.03-9.08,9.59-11.7,16.68c-2.62,7.1-3.93,15.21-3.93,24.35c0,9.21,1.33,17.4,3.98,24.6
		c2.65,7.19,6.58,12.85,11.8,16.97C1364.31,523.33,1370.72,525.39,1378.32,525.39z"/>
	<path class="st2" d="M1514.42,554.25c-9.34,0-17.73-1.68-25.17-5.03c-7.45-3.36-13.33-8.33-17.65-14.91
		c-4.32-6.58-6.47-14.7-6.47-24.35c0-8.31,1.54-15.18,4.6-20.62c3.07-5.43,7.26-9.78,12.56-13.04c5.3-3.26,11.3-5.74,17.98-7.43
		c6.68-1.69,13.6-2.92,20.76-3.69c8.63-0.9,15.63-1.71,21-2.45c5.37-0.73,9.29-1.89,11.75-3.45c2.47-1.57,3.69-4.01,3.69-7.34v-0.58
		c0-7.22-2.15-12.82-6.43-16.78c-4.29-3.96-10.45-5.95-18.51-5.95c-8.5,0-15.23,1.85-20.18,5.56c-4.95,3.71-8.3,8.09-10.02,13.14
		l-32.41-4.6c2.56-8.95,6.77-16.45,12.66-22.49c5.88-6.04,13.07-10.58,21.57-13.62c8.5-3.04,17.9-4.56,28.2-4.56
		c7.09,0,14.16,0.83,21.19,2.49c7.03,1.66,13.45,4.4,19.27,8.2c5.82,3.8,10.5,8.97,14.05,15.49c3.55,6.52,5.32,14.67,5.32,24.45
		v98.57h-33.37v-20.23h-1.15c-2.11,4.09-5.07,7.91-8.87,11.46c-3.8,3.55-8.56,6.39-14.28,8.53
		C1528.78,553.18,1522.09,554.25,1514.42,554.25z M1523.43,528.74c6.97,0,13.01-1.39,18.12-4.17c5.11-2.78,9.06-6.47,11.84-11.08
		c2.78-4.6,4.17-9.62,4.17-15.05v-17.36c-1.09,0.9-2.92,1.73-5.51,2.49s-5.48,1.44-8.68,2.01c-3.19,0.58-6.36,1.09-9.49,1.53
		c-3.13,0.45-5.85,0.83-8.15,1.15c-5.18,0.7-9.81,1.85-13.9,3.45c-4.09,1.6-7.32,3.82-9.69,6.66c-2.36,2.84-3.54,6.5-3.54,10.98
		c0,6.39,2.33,11.22,7,14.48C1510.26,527.11,1516.2,528.74,1523.43,528.74z"/>
	<path class="st2" d="M1617.73,551.28V403.99h33.66v24.55h1.54c2.68-8.5,7.31-15.07,13.86-19.7c6.55-4.63,14.05-6.95,22.49-6.95
		c1.92,0,4.07,0.08,6.47,0.24c2.4,0.16,4.39,0.4,6,0.72v31.93c-1.47-0.51-3.79-0.97-6.96-1.39c-3.16-0.41-6.21-0.62-9.16-0.62
		c-6.33,0-12,1.36-17.02,4.08c-5.02,2.72-8.96,6.47-11.84,11.27c-2.88,4.79-4.32,10.32-4.32,16.59v86.59H1617.73z"/>
	<path class="st2" d="M1766.61,553.87c-11.57,0-21.93-2.97-31.07-8.92c-9.14-5.94-16.36-14.58-21.67-25.89
		c-5.31-11.31-7.96-25.06-7.96-41.23c0-16.36,2.7-30.19,8.1-41.47c5.41-11.28,12.71-19.82,21.92-25.6
		c9.2-5.78,19.46-8.68,30.78-8.68c8.63,0,15.73,1.45,21.29,4.36c5.56,2.91,9.98,6.39,13.24,10.45s5.78,7.88,7.58,11.46h1.43V354.9
		h34.81v196.38h-34.13v-23.2h-2.11c-1.8,3.58-4.38,7.37-7.77,11.36c-3.39,4-7.87,7.4-13.42,10.21
		C1782.04,552.46,1775.04,553.87,1766.61,553.87z M1776.29,525.39c7.35,0,13.62-2,18.8-5.99c5.18-3.99,9.11-9.57,11.79-16.73
		c2.69-7.16,4.03-15.5,4.03-25.03c0-9.52-1.33-17.8-3.98-24.84c-2.65-7.03-6.55-12.5-11.7-16.4c-5.14-3.9-11.46-5.85-18.94-5.85
		c-7.73,0-14.19,2.01-19.37,6.04c-5.18,4.03-9.08,9.59-11.7,16.68c-2.62,7.1-3.93,15.21-3.93,24.35c0,9.21,1.33,17.4,3.98,24.6
		c2.65,7.19,6.58,12.85,11.8,16.97C1762.27,523.33,1768.68,525.39,1776.29,525.39z"/>
	<path class="st2" d="M1985.05,442.92l-31.64,3.45c-0.89-3.2-2.44-6.2-4.65-9.01c-2.21-2.81-5.17-5.08-8.87-6.81
		c-3.71-1.73-8.25-2.59-13.62-2.59c-7.22,0-13.28,1.57-18.17,4.7c-4.89,3.13-7.3,7.19-7.24,12.18c-0.06,4.28,1.52,7.77,4.75,10.45
		c3.22,2.69,8.58,4.89,16.06,6.62l25.12,5.37c13.94,3,24.31,7.77,31.11,14.29c6.81,6.52,10.25,15.05,10.31,25.6
		c-0.06,9.27-2.76,17.44-8.1,24.5c-5.34,7.07-12.74,12.58-22.2,16.54c-9.46,3.96-20.33,5.94-32.6,5.94
		c-18.03,0-32.54-3.79-43.53-11.36c-10.99-7.57-17.55-18.14-19.65-31.69l33.85-3.26c1.53,6.65,4.79,11.67,9.78,15.05
		c4.98,3.39,11.47,5.08,19.46,5.08c8.25,0,14.88-1.69,19.9-5.08c5.02-3.39,7.53-7.58,7.53-12.56c0-4.22-1.62-7.7-4.84-10.45
		c-3.23-2.75-8.23-4.86-15.01-6.33l-25.12-5.27c-14.13-2.94-24.58-7.91-31.35-14.91c-6.78-7-10.14-15.87-10.07-26.61
		c-0.07-9.08,2.41-16.95,7.43-23.64c5.02-6.68,12.02-11.86,21-15.53c8.98-3.68,19.35-5.51,31.12-5.51c17.26,0,30.86,3.68,40.8,11.03
		C1976.54,420.45,1982.69,430.39,1985.05,442.92z"/>
</g>
<g>
	<path class="st2" d="M760.76,291.07V94.69h63.38c13.93,0,25.59,2.67,34.95,8.01c9.36,5.34,16.43,12.58,21.19,21.72
		c4.76,9.14,7.14,19.43,7.14,30.88c0,11.44-2.37,21.75-7.09,30.92c-4.73,9.17-11.76,16.43-21.1,21.77
		c-9.33,5.34-20.94,8.01-34.81,8.01h-49.86v-16.11h49.38c10.29,0,18.83-1.93,25.6-5.8c6.77-3.87,11.84-9.16,15.2-15.87
		c3.36-6.71,5.04-14.35,5.04-22.92s-1.68-16.21-5.04-22.92c-3.35-6.71-8.44-11.99-15.25-15.82c-6.81-3.84-15.42-5.75-25.84-5.75
		h-44.97v180.27H760.76z"/>
	<path class="st2" d="M961.71,294.14c-12.72,0-23.96-3.23-33.7-9.68c-9.75-6.46-17.37-15.39-22.87-26.8
		c-5.5-11.41-8.25-24.6-8.25-39.55c0-15.09,2.75-28.37,8.25-39.84c5.5-11.47,13.12-20.42,22.87-26.85
		c9.75-6.43,20.98-9.64,33.7-9.64c12.72,0,23.94,3.23,33.66,9.68c9.72,6.46,17.34,15.41,22.87,26.85
		c5.53,11.44,8.29,24.71,8.29,39.79c0,14.96-2.75,28.14-8.25,39.55c-5.5,11.41-13.12,20.35-22.87,26.8
		C985.66,290.91,974.43,294.14,961.71,294.14z M961.71,278.51c10.23,0,18.89-2.75,25.98-8.25c7.1-5.5,12.48-12.82,16.16-21.96
		c3.67-9.14,5.51-19.21,5.51-30.2s-1.84-21.1-5.51-30.3c-3.68-9.21-9.06-16.59-16.16-22.15c-7.09-5.56-15.76-8.34-25.98-8.34
		c-10.16,0-18.81,2.78-25.94,8.34c-7.13,5.56-12.53,12.95-16.2,22.15c-3.68,9.21-5.51,19.31-5.51,30.3s1.84,21.06,5.51,30.2
		c3.67,9.14,9.06,16.46,16.16,21.96C942.82,275.76,951.48,278.51,961.71,278.51z"/>
	<path class="st2" d="M1104.89,294.14c-12.08,0-22.66-3.2-31.74-9.59s-16.16-15.31-21.24-26.75c-5.08-11.44-7.62-24.77-7.62-39.98
		c0-15.15,2.54-28.43,7.62-39.84c5.08-11.41,12.19-20.3,21.34-26.66c9.14-6.36,19.78-9.54,31.93-9.54c8.95,0,16.4,1.58,22.34,4.75
		c5.95,3.16,10.71,7.08,14.29,11.75c3.58,4.67,6.36,9.21,8.34,13.62h1.53V94.69h17.16v196.38h-16.68v-27.33h-2.01
		c-1.98,4.48-4.79,9.06-8.44,13.76c-3.64,4.7-8.46,8.65-14.43,11.84C1121.3,292.54,1113.84,294.14,1104.89,294.14z M1106.9,278.51
		c9.52,0,17.64-2.6,24.36-7.82c6.71-5.21,11.84-12.4,15.39-21.57c3.55-9.17,5.32-19.7,5.32-31.59c0-11.76-1.76-22.17-5.27-31.21
		c-3.51-9.04-8.63-16.14-15.34-21.29c-6.71-5.14-14.86-7.72-24.45-7.72c-9.85,0-18.14,2.67-24.88,8.01
		c-6.74,5.34-11.86,12.55-15.34,21.62s-5.23,19.27-5.23,30.59c0,11.44,1.76,21.77,5.27,30.97c3.51,9.21,8.65,16.51,15.39,21.91
		C1088.86,275.81,1097.12,278.51,1106.9,278.51z"/>
	<path class="st2" d="M1256.09,294.14c-13.17,0-24.63-3.29-34.38-9.88c-9.75-6.58-17.31-15.6-22.68-27.04
		c-5.37-11.44-8.05-24.48-8.05-39.12c0-14.77,2.73-27.9,8.2-39.41c5.47-11.51,13.06-20.53,22.77-27.09c9.72-6.55,21-9.83,33.85-9.83
		c9.84,0,18.76,1.9,26.75,5.71c7.99,3.8,14.59,9.14,19.8,16.01c5.21,6.87,8.49,14.88,9.83,24.02h-17.26
		c-1.79-8.31-6.09-15.42-12.9-21.33s-15.45-8.87-25.94-8.87c-9.4,0-17.71,2.54-24.93,7.62c-7.22,5.08-12.87,12.15-16.92,21.19
		c-4.06,9.05-6.09,19.51-6.09,31.4c0,11.96,1.98,22.52,5.95,31.69c3.96,9.17,9.54,16.35,16.73,21.53
		c7.19,5.18,15.61,7.77,25.27,7.77c6.52,0,12.48-1.23,17.88-3.69c5.4-2.46,9.94-5.96,13.62-10.5c3.68-4.54,6.15-9.94,7.43-16.2
		h17.26c-1.28,8.89-4.43,16.8-9.44,23.73c-5.02,6.94-11.51,12.39-19.47,16.35C1275.42,292.16,1266.32,294.14,1256.09,294.14z"/>
	<path class="st2" d="M1377.8,294.43c-8.88,0-17-1.74-24.36-5.23c-7.35-3.48-13.2-8.53-17.55-15.15
		c-4.35-6.62-6.52-14.66-6.52-24.12c0-7.29,1.37-13.42,4.12-18.41c2.75-4.99,6.65-9.08,11.7-12.27c5.05-3.2,11.03-5.72,17.93-7.57
		c6.9-1.85,14.51-3.29,22.82-4.32c8.25-1.02,15.23-1.92,20.95-2.68c5.72-0.77,10.08-1.98,13.09-3.64c3-1.66,4.51-4.35,4.51-8.05
		v-3.45c0-10.04-2.99-17.95-8.97-23.73c-5.98-5.78-14.56-8.68-25.75-8.68c-10.61,0-19.26,2.33-25.94,7
		c-6.68,4.67-11.36,10.16-14.05,16.49l-16.2-5.85c3.32-8.05,7.93-14.49,13.81-19.32c5.88-4.82,12.46-8.31,19.75-10.45
		c7.29-2.14,14.67-3.21,22.15-3.21c5.63,0,11.49,0.74,17.6,2.21c6.11,1.47,11.78,4.01,17.02,7.62c5.24,3.61,9.49,8.63,12.75,15.05
		c3.26,6.42,4.89,14.56,4.89,24.4v100.01h-17.07v-23.3h-1.05c-2.05,4.35-5.08,8.57-9.11,12.66c-4.03,4.09-9.08,7.45-15.15,10.07
		C1393.11,293.12,1385.98,294.43,1377.8,294.43z M1380.11,278.8c9.08,0,16.94-2.01,23.59-6.04c6.65-4.03,11.78-9.38,15.39-16.06
		c3.61-6.68,5.42-14.05,5.42-22.1v-21.29c-1.28,1.21-3.41,2.3-6.38,3.26c-2.97,0.96-6.39,1.81-10.26,2.54
		c-3.87,0.74-7.72,1.36-11.55,1.87c-3.84,0.51-7.29,0.96-10.35,1.34c-8.31,1.02-15.41,2.62-21.29,4.79
		c-5.88,2.17-10.39,5.16-13.52,8.97c-3.13,3.8-4.7,8.68-4.7,14.62c0,8.95,3.19,15.87,9.59,20.76
		C1362.43,276.35,1370.45,278.8,1380.11,278.8z"/>
	<path class="st2" d="M1571.03,176.1l-15.63,4.41c-1.53-4.41-3.71-8.4-6.52-11.99c-2.81-3.58-6.47-6.43-10.98-8.53
		c-4.51-2.11-10.08-3.16-16.73-3.16c-9.97,0-18.15,2.37-24.55,7.1c-6.4,4.73-9.59,10.84-9.59,18.32c0,6.33,2.19,11.46,6.57,15.39
		c4.38,3.93,11.14,7.05,20.28,9.35l22.25,5.47c12.33,3.01,21.59,7.77,27.76,14.29c6.17,6.52,9.25,14.7,9.25,24.55
		c0,8.31-2.3,15.69-6.9,22.15c-4.6,6.46-11.01,11.52-19.23,15.2s-17.72,5.51-28.53,5.51c-14.38,0-26.24-3.24-35.57-9.73
		c-9.34-6.49-15.31-15.87-17.93-28.14l16.4-4.03c2.11,8.76,6.25,15.38,12.42,19.85c6.17,4.48,14.3,6.71,24.4,6.71
		c11.31,0,20.36-2.54,27.13-7.62c6.78-5.08,10.16-11.46,10.16-19.13c0-5.94-1.98-10.95-5.95-15.01c-3.96-4.06-9.97-7.05-18.02-8.97
		l-24.07-5.75c-12.79-3.07-22.25-7.93-28.38-14.58c-6.14-6.65-9.21-14.89-9.21-24.74c0-8.12,2.21-15.26,6.62-21.43
		c4.41-6.17,10.48-11.01,18.22-14.53c7.74-3.51,16.56-5.27,26.47-5.27c13.49,0,24.27,3.05,32.36,9.16
		C1561.62,157.04,1567.45,165.43,1571.03,176.1z"/>
	<path class="st2" d="M1656.39,143.79v14.86h-70.28v-14.86H1656.39z M1608.07,108.5h17.16v144.12c0,6.14,1.05,10.95,3.16,14.43
		c2.11,3.49,4.86,5.95,8.25,7.38c3.39,1.44,7,2.16,10.83,2.16c2.24,0,4.16-0.14,5.75-0.43c1.6-0.29,3-0.59,4.22-0.91l3.64,15.44
		c-1.66,0.64-3.71,1.23-6.14,1.78c-2.43,0.54-5.43,0.82-9.01,0.82c-6.27,0-12.29-1.38-18.08-4.12c-5.79-2.75-10.53-6.84-14.24-12.27
		c-3.71-5.43-5.56-12.18-5.56-20.23V108.5z"/>
</g>
</svg>
