<?xml version="1.0" encoding="utf-8"?>
<!-- Generator: Adobe Illustrator 27.0.0, SVG Export Plug-In . SVG Version: 6.00 Build 0)  -->
<svg version="1.1" id="Layer_1" xmlns="http://www.w3.org/2000/svg" xmlns:xlink="http://www.w3.org/1999/xlink" x="0px" y="0px"
	 viewBox="0 0 1600 1600" style="enable-background:new 0 0 1600 1600;" xml:space="preserve">
<style type="text/css">
	.st0{fill:#F05A28;}
	.st1{fill:#1D1D1D;}
</style>
<g>
	<path class="st0" d="M819.05,160.93c134.92-0.36,253.47,43.01,339.18,124.81c87.3,83.31,129.23,192.79,130.64,319.56h162.71
		c-4.41-82.04-4.21-269.16-169.49-429.25C1117.36,16.49,904.48,7.11,819.05,7.11L819.05,160.93z"/>
	<path class="st0" d="M819.05,1439.77c-146.55-0.76-266.12-39.58-354.96-117.38c-88.77-77.74-146.43-185.81-149.1-344.56H147.82
		c2.77,102.97,16.35,293.88,186.84,454.71c163.78,154.51,385.8,161.04,484.39,161.04V1439.77z"/>
	<path class="st1" d="M818.89,1302.81c0.78,0,1.61,0,2.39,0c54.95,0,104.89-8.17,149.82-24.57c44.91-16.38,83.24-38.05,114.95-65.01
		c31.71-26.95,56.28-57.32,73.72-91.16c17.45-33.82,26.16-68.7,26.16-104.64c0-60.25-12.68-109.12-38.05-146.65
		c-25.37-37.51-57.08-67.9-95.13-91.16c-38.05-23.24-79.54-41.74-124.46-55.49c-44.93-13.72-86.4-26.95-124.46-39.64
		c-38.05-12.68-69.76-26.95-95.13-42.81c-25.37-15.85-38.05-38.57-38.05-68.17c0-27.47,13.2-52.84,39.63-76.1
		c26.41-23.24,61.03-34.88,108.59-34.88V288.17c-52.93,0.23-100.51,8.12-142.67,23.74c-42.81,15.86-79.27,36.74-109.4,62.63
		c-30.13,25.91-53.38,56.28-69.76,91.16c-16.4,34.88-24.58,71.34-24.58,109.4c0,58.14,12.69,104.91,38.05,140.31
		c25.37,35.42,57.08,64.21,95.13,86.4c38.05,22.2,79.52,39.64,124.46,52.32c44.91,12.69,86.41,25.64,124.46,38.84
		c38.05,13.23,69.76,28.29,95.13,45.19c25.37,16.92,38.05,40.7,38.05,71.35c0,31.71-13.75,59.45-41.22,83.23
		c-27.5,23.78-69.24,35.67-125.25,35.67c-0.81,0-1.59-0.03-2.39-0.04v174.4"/>
	<path class="st0" d="M821.28,462.52c47.57,0,84.55,12.69,110.98,38.05c26.41,25.37,39.64,60.25,39.64,104.64h182.33l0,0
		c0-45.43-7.93-87.45-23.78-126.04c-15.86-38.57-38.6-72.14-68.17-100.67c-29.61-28.54-64.76-50.73-105.43-66.59
		c-40.7-15.86-85.89-23.78-135.56-23.78c-0.81,0-1.59,0.04-2.39,0.04v0v174.36C819.7,462.51,820.46,462.52,821.28,462.52z"/>
	<path class="st0" d="M818.89,1128.37L818.89,1128.37c-18.99-0.16-36.47-2.22-52.44-6.19c-0.02-0.01-0.05-0.01-0.07-0.02
		c-2.63-0.65-5.22-1.36-7.76-2.12c-0.1-0.03-0.21-0.07-0.31-0.1c-2.46-0.74-4.89-1.52-7.28-2.35c-0.19-0.07-0.37-0.14-0.56-0.21
		c-2.29-0.81-4.56-1.66-6.78-2.56c-0.28-0.11-0.55-0.24-0.83-0.36c-2.12-0.87-4.21-1.77-6.26-2.73c-0.39-0.18-0.77-0.39-1.16-0.58
		c-1.92-0.91-3.82-1.85-5.68-2.83c-0.51-0.27-1-0.57-1.5-0.85c-1.72-0.94-3.43-1.88-5.1-2.89c-0.65-0.39-1.28-0.82-1.92-1.22
		c-1.49-0.93-2.98-1.85-4.43-2.83c-0.83-0.56-1.63-1.17-2.46-1.76c-1.22-0.87-2.46-1.72-3.66-2.63c-1.07-0.81-2.1-1.68-3.15-2.52
		c-0.91-0.73-1.84-1.44-2.72-2.19c-1.75-1.48-3.45-3.02-5.12-4.59c-0.16-0.15-0.34-0.29-0.5-0.45
		c-29.61-27.99-44.39-64.21-44.39-108.6H464.56v0c0,47.56,8.17,91.16,24.57,130.8c16.38,39.63,39.89,74,70.55,103.05
		c30.64,29.08,67.9,51.52,111.77,67.38c0.37,0.13,0.76,0.24,1.13,0.38c5.07,1.81,10.2,3.54,15.44,5.14
		c3.44,1.05,6.97,1.97,10.48,2.94c2.2,0.6,4.35,1.27,6.58,1.84c4.87,1.24,9.84,2.35,14.84,3.41c0.92,0.2,1.8,0.43,2.73,0.62
		c5.75,1.18,11.58,2.25,17.5,3.21c0.2,0.03,0.4,0.08,0.6,0.11c24.57,3.95,50.61,5.98,78.13,6.09V1128.37z"/>
</g>
<g>
	<path class="st0" d="M851.03,1575.23h-6.49v-2.84h16.26v2.84h-6.48v18.37h-3.29V1575.23z"/>
	<path class="st0" d="M863.48,1572.39h3.81l6.86,16.93h0.09l6.88-16.93h3.79v21.2h-3v-15.65h-0.1l-6.39,15.65h-2.44l-6.39-15.65
		h-0.1v15.65h-3V1572.39z"/>
</g>
</svg>
